<svg width="56" height="44" viewBox="0 0 56 44" fill="none" xmlns="http://www.w3.org/2000/svg">
<path d="M49 0H7C5.14409 0.00198528 3.36477 0.740121 2.05245 2.05245C0.740121 3.36477 0.00198528 5.14409 0 7V37C0.00198528 38.8559 0.740121 40.6352 2.05245 41.9476C3.36477 43.2599 5.14409 43.998 7 44H49C50.8559 43.998 52.6352 43.2599 53.9476 41.9476C55.2599 40.6352 55.998 38.8559 56 37V7C55.998 5.14409 55.2599 3.36477 53.9476 2.05245C52.6352 0.740121 50.8559 0.00198528 49 0ZM47.2275 11.5788L29.2275 25.5788C28.8765 25.8516 28.4446 25.9997 28 25.9997C27.5554 25.9997 27.1235 25.8516 26.7725 25.5788L8.7725 11.5788C8.56102 11.419 8.38338 11.2189 8.24992 10.9899C8.11646 10.761 8.02983 10.5078 7.99506 10.2451C7.9603 9.98235 7.9781 9.71534 8.04742 9.45956C8.11674 9.20377 8.23621 8.96432 8.39887 8.7551C8.56154 8.54589 8.76417 8.37109 8.99497 8.24086C9.22578 8.11063 9.48017 8.02757 9.74335 7.99651C10.0065 7.96545 10.2733 7.987 10.5281 8.05992C10.7828 8.13283 11.0206 8.25565 11.2275 8.42125L28 21.4662L44.7725 8.42125C45.1919 8.10453 45.7191 7.96562 46.2401 8.03456C46.7612 8.1035 47.2341 8.37475 47.5567 8.78965C47.8793 9.20456 48.0256 9.72977 47.964 10.2517C47.9024 10.7736 47.6378 11.2504 47.2275 11.5788Z" fill="white"/>
</svg>
